<?xml version="1.0" encoding="UTF-8" standalone="no"?>
<!DOCTYPE svg PUBLIC "-//W3C//DTD SVG 20010904//EN"
              "http://www.w3.org/TR/2001/REC-SVG-20010904/DTD/svg10.dtd">

<svg xmlns="http://www.w3.org/2000/svg"
     width="0.52in" height="0.836667in"
     viewBox="0 0 156 251">
  <path id="Selection"
        fill="black" stroke="black" stroke-width="1"
        d="M 75.23,0.76
           C 84.64,-0.95 82.92,9.82 83.72,16.00
             86.26,35.50 89.86,54.89 97.86,73.00
             103.65,86.10 113.11,100.36 124.00,109.70
             128.06,113.18 132.48,116.17 137.00,119.00
             139.22,120.39 142.62,122.27 143.26,125.04
             144.07,128.59 140.52,130.71 138.00,132.27
             130.81,136.71 124.23,141.06 118.28,147.17
             99.39,166.58 90.75,192.94 85.80,219.00
             85.80,219.00 82.91,242.00 82.91,242.00
             82.67,245.01 82.10,249.14 78.86,250.38
             70.91,253.43 71.29,239.57 70.98,235.00
             69.61,214.87 63.51,187.89 54.22,170.00
             47.75,157.56 40.14,147.99 29.00,139.43
             29.00,139.43 14.74,130.31 14.74,130.31
             13.87,129.35 13.42,128.25 13.28,126.97
             12.81,122.44 16.81,120.95 20.00,118.94
             27.40,114.28 32.97,109.51 38.83,103.00
             55.84,84.10 63.32,59.41 68.20,35.00
             68.20,35.00 71.72,11.00 71.72,11.00
             72.27,6.39 71.09,3.69 75.23,0.76 Z
           M 4.60,44.08
           C 9.08,42.92 12.94,48.19 16.00,51.00
             22.28,56.76 33.33,65.60 41.00,69.10
             46.99,71.83 51.69,71.36 51.33,76.06
             50.79,82.91 43.31,92.13 38.00,96.10
             35.35,98.07 30.96,101.49 28.30,97.68
             27.44,96.45 25.93,90.83 25.33,89.00
             23.43,83.17 20.97,76.41 18.11,71.00
             14.84,64.79 11.30,58.74 7.26,53.00
             5.09,49.91 2.37,47.70 4.60,44.08 Z
           M 78.00,44.00
           C 75.62,48.00 73.77,57.06 72.28,62.00
             70.14,69.10 65.17,81.55 61.69,88.00
             57.17,96.40 49.60,107.21 42.96,113.99
             38.47,118.57 32.95,121.93 29.00,127.00
             47.27,137.50 61.66,158.50 68.95,178.00
             68.95,178.00 78.00,206.00 78.00,206.00
             83.81,177.19 100.90,142.17 127.00,127.00
             127.00,127.00 127.00,125.00 127.00,125.00
             99.51,105.46 84.54,76.51 78.00,44.00 Z
           M 151.87,44.17
           C 157.67,45.35 152.19,51.43 150.21,54.00
             141.81,64.90 136.35,72.90 131.69,86.00
             130.65,88.92 128.46,99.42 125.70,100.27
             123.23,101.03 119.86,98.50 118.01,97.10
             113.20,93.43 108.80,87.69 106.71,82.00
             105.91,79.82 104.76,76.49 106.06,74.31
             107.01,72.73 117.03,69.48 120.00,67.77
             126.77,63.87 134.00,58.27 140.00,53.25
             143.79,50.07 147.23,45.98 151.87,44.17 Z
           M 22.00,63.00
           C 22.00,63.00 25.57,74.00 25.57,74.00
             25.57,74.00 32.00,93.00 32.00,93.00
             38.74,89.38 42.86,84.34 45.00,77.00
             35.43,72.49 30.30,70.01 22.00,63.00 Z
           M 135.00,65.00
           C 135.00,65.00 134.00,65.00 134.00,65.00
             134.00,65.00 135.00,66.00 135.00,66.00
             135.00,66.00 135.00,65.00 135.00,65.00 Z
           M 134.00,66.00
           C 134.00,66.00 121.00,73.68 121.00,73.68
             121.00,73.68 111.00,78.00 111.00,78.00
             113.84,84.56 116.66,90.84 124.00,93.00
             124.00,93.00 134.00,66.00 134.00,66.00 Z
           M 27.29,148.96
           C 34.94,149.19 43.60,160.51 46.68,167.00
             47.64,169.02 49.74,173.52 49.05,175.71
             48.03,178.97 44.02,177.08 36.00,180.79
             29.40,183.85 21.33,190.13 16.00,195.09
             13.60,197.32 7.62,203.89 5.02,204.83
             2.03,205.92 -0.43,203.93 2.50,199.00
             2.50,199.00 7.95,191.00 7.95,191.00
             11.61,185.25 14.85,179.20 17.69,173.00
             20.17,167.59 21.81,162.70 23.42,157.00
             24.37,153.65 24.35,150.95 27.29,148.96 Z
           M 124.96,148.77
           C 131.04,148.14 130.81,155.21 132.34,160.00
             136.62,173.35 141.87,182.88 150.42,194.00
             151.53,195.44 158.84,204.03 153.70,204.95
             151.31,205.38 148.56,202.46 147.00,200.98
             141.90,196.18 136.71,191.52 131.00,187.43
             127.04,184.58 120.59,180.40 116.00,178.91
             111.99,177.62 108.44,178.41 106.69,176.40
             104.70,174.12 106.82,169.35 107.90,167.00
             111.39,159.38 117.30,152.34 124.96,148.77 Z
           M 30.00,156.00
           C 30.00,156.00 24.55,171.00 24.55,171.00
             24.55,171.00 19.00,184.00 19.00,184.00
             27.73,180.30 31.79,174.76 43.00,173.00
             40.82,165.52 36.25,160.48 30.00,156.00 Z
           M 125.00,156.00
           C 118.24,159.21 114.59,165.21 112.00,172.00
             112.00,172.00 136.00,183.00 136.00,183.00
             136.00,183.00 130.45,171.00 130.45,171.00
             130.45,171.00 125.00,156.00 125.00,156.00 Z" />
</svg>
