<?xml version="1.0" encoding="UTF-8" standalone="no"?>
<!DOCTYPE svg PUBLIC "-//W3C//DTD SVG 20010904//EN"
              "http://www.w3.org/TR/2001/REC-SVG-20010904/DTD/svg10.dtd">

<svg xmlns="http://www.w3.org/2000/svg"
     width="1.36667in" height="0.88in"
     viewBox="0 0 410 264">
  <path id="Selection"
        fill="black" stroke="black" stroke-width="1"
        d="M 197.00,0.52
           C 211.11,-1.72 225.17,1.77 234.67,13.01
             252.98,34.66 242.26,69.76 214.00,75.71
             201.62,78.32 188.54,75.53 179.04,66.82
             163.35,52.44 162.45,25.23 178.17,10.44
             183.54,5.39 189.96,2.41 197.00,0.52 Z
           M 202.00,20.33
           C 178.20,26.04 183.38,56.59 204.00,58.47
             224.84,60.37 232.88,32.30 215.00,22.09
             210.91,19.75 206.51,19.83 202.00,20.33 Z
           M 368.00,30.44
           C 407.55,26.23 426.26,79.92 393.00,101.05
             384.23,106.62 379.02,107.12 369.00,107.00
             341.02,106.66 325.23,75.07 337.38,51.00
             343.74,38.39 354.77,32.86 368.00,30.44 Z
           M 33.00,32.44
           C 45.68,30.81 59.22,35.11 67.68,45.01
             84.19,64.35 78.12,96.00 54.00,105.91
             48.22,108.28 43.21,109.13 37.00,108.99
             3.09,108.20 -11.84,66.80 11.17,43.09
             16.95,37.14 24.99,33.94 33.00,32.44 Z
           M 371.00,50.31
           C 364.15,51.61 358.77,54.53 355.45,61.00
             349.01,73.56 358.67,90.66 375.00,88.81
             399.33,86.07 397.25,48.82 371.00,50.31 Z
           M 34.00,51.39
           C 12.98,57.71 16.41,88.02 38.00,88.96
             59.93,89.92 65.25,62.80 49.00,53.23
             44.47,50.56 39.03,50.71 34.00,51.39 Z
           M 236.00,74.00
           C 241.02,80.32 243.46,89.81 253.04,98.83
             263.71,108.89 283.16,117.44 298.00,116.96
             304.90,116.74 315.66,113.77 322.00,110.96
             329.10,107.82 331.07,105.19 337.00,101.00
             342.40,105.94 346.28,109.00 353.00,112.00
             349.05,123.47 329.92,131.04 319.00,134.28
             313.76,135.84 302.34,137.97 297.00,137.97
             273.72,137.97 246.28,125.07 231.81,107.00
             226.48,100.35 220.54,91.47 219.00,83.00
             226.30,81.01 229.94,78.25 236.00,74.00 Z
           M 175.00,76.00
           C 175.00,76.00 194.00,84.00 194.00,84.00
             192.32,94.69 184.46,104.54 177.00,112.00
             166.68,122.32 149.41,133.22 135.00,136.47
             126.94,138.30 106.48,137.12 98.00,135.58
             85.50,133.30 64.65,124.94 59.00,113.00
             64.98,109.78 69.88,106.50 74.00,101.00
             82.33,106.55 84.98,109.61 95.00,113.14
             119.66,121.82 143.70,115.52 161.99,97.00
             167.93,90.98 172.66,84.20 175.00,76.00 Z
           M 359.00,115.00
           C 359.00,115.00 379.00,116.00 379.00,116.00
             378.99,136.16 370.29,171.11 362.80,190.00
             360.89,194.80 354.98,208.60 350.82,210.98
             348.67,212.20 345.43,212.00 343.00,212.00
             343.00,212.00 72.00,212.00 72.00,212.00
             69.22,212.00 63.37,212.20 61.00,210.89
             55.98,208.12 50.10,193.59 48.05,188.00
             42.14,171.89 38.43,154.79 35.00,138.00
             35.00,138.00 31.00,118.00 31.00,118.00
             31.00,118.00 52.00,116.00 52.00,116.00
             52.00,116.00 56.00,136.00 56.00,136.00
             56.00,136.00 65.67,174.00 65.67,174.00
             66.97,177.92 70.14,188.88 73.39,190.98
             75.32,192.22 78.74,192.00 81.00,192.00
             81.00,192.00 330.00,192.00 330.00,192.00
             332.37,192.00 335.72,192.20 337.79,190.98
             341.46,188.80 345.25,177.25 346.67,173.00
             353.56,152.31 355.25,135.90 359.00,115.00 Z
           M 63.00,218.00
           C 63.00,218.00 349.00,218.00 349.00,218.00
             349.00,218.00 349.00,250.00 349.00,250.00
             348.94,254.46 348.49,258.42 344.79,261.49
             341.44,264.27 337.08,263.99 333.00,264.00
             333.00,264.00 140.00,264.00 140.00,264.00
             140.00,264.00 86.00,264.00 86.00,264.00
             79.84,264.00 69.95,265.26 65.42,260.61
             60.66,255.73 62.99,248.19 63.00,242.00
             63.00,242.00 63.00,218.00 63.00,218.00 Z" />
</svg>
