<?xml version="1.0" encoding="UTF-8" standalone="no"?>
<!DOCTYPE svg PUBLIC "-//W3C//DTD SVG 20010904//EN"
              "http://www.w3.org/TR/2001/REC-SVG-20010904/DTD/svg10.dtd">

<svg xmlns="http://www.w3.org/2000/svg"
     width="1.04667in" height="1.53667in"
     viewBox="0 0 314 461">
  <path id="Selection"
        fill="black" stroke="black" stroke-width="1"
        d="M 120.00,193.00
           C 120.00,193.00 29.00,193.00 29.00,193.00
             22.78,193.00 5.49,194.74 1.74,189.77
             -0.29,187.09 0.01,183.19 0.00,180.00
             0.00,180.00 0.00,129.00 0.00,129.00
             0.13,119.83 2.53,119.02 11.00,119.00
             11.00,119.00 95.00,119.00 95.00,119.00
             95.00,119.00 113.00,119.00 113.00,119.00
             115.14,118.96 117.77,119.04 119.40,117.40
             121.32,115.48 120.99,111.54 121.00,109.00
             121.00,109.00 121.00,17.00 121.00,17.00
             120.97,10.79 118.52,2.79 127.00,1.07
             127.00,1.07 133.00,1.07 133.00,1.07
             133.00,1.07 179.00,1.07 179.00,1.07
             184.55,0.94 192.02,-0.62 193.13,7.00
             193.13,7.00 193.13,18.00 193.13,18.00
             193.13,18.00 193.13,118.10 193.13,118.10
             193.13,118.10 285.00,118.10 285.00,118.10
             285.00,118.10 307.98,118.10 307.98,118.10
             309.85,118.79 311.11,119.57 312.26,121.15
             314.28,123.90 313.99,127.75 314.00,131.00
             314.00,131.00 314.00,182.00 314.00,182.00
             313.86,192.15 310.06,192.99 301.00,193.00
             301.00,193.00 193.00,193.00 193.00,193.00
             193.00,193.00 193.00,397.00 193.00,397.00
             193.00,397.00 193.00,442.00 193.00,442.00
             193.00,446.53 193.96,455.24 190.57,458.49
             187.16,461.75 179.64,460.01 175.00,460.00
             175.00,460.00 135.00,460.00 135.00,460.00
             130.59,460.06 125.08,461.78 121.65,458.35
             118.24,454.94 119.99,447.69 120.00,443.00
             120.00,443.00 120.00,193.00 120.00,193.00 Z
           M 180.00,14.00
           C 180.00,14.00 152.00,14.00 152.00,14.00
             152.00,14.00 134.00,15.00 134.00,15.00
             134.00,15.00 134.00,104.00 134.00,104.00
             134.00,110.07 135.71,126.77 130.85,130.40
             128.35,132.27 124.96,131.99 122.00,132.00
             122.00,132.00 14.00,132.00 14.00,132.00
             14.00,132.00 14.00,179.00 14.00,179.00
             14.00,179.00 105.00,179.00 105.00,179.00
             111.12,179.00 127.53,177.29 131.26,182.23
             133.29,184.91 132.99,188.81 133.00,192.00
             133.00,192.00 133.00,447.00 133.00,447.00
             133.00,447.00 179.00,447.00 179.00,447.00
             179.00,447.00 179.00,241.00 179.00,241.00
             179.00,241.00 179.00,191.00 179.00,191.00
             179.07,181.00 182.60,179.02 192.00,179.00
             192.00,179.00 300.00,179.00 300.00,179.00
             300.00,179.00 300.00,131.92 300.00,131.92
             300.00,131.92 193.00,131.92 193.00,131.92
             193.00,131.92 187.00,131.92 187.00,131.92
             176.69,129.89 179.99,120.35 180.00,113.00
             180.00,113.00 180.00,14.00 180.00,14.00 Z" />
</svg>
