<?xml version="1.0" encoding="UTF-8" standalone="no"?>
<!DOCTYPE svg PUBLIC "-//W3C//DTD SVG 20010904//EN"
              "http://www.w3.org/TR/2001/REC-SVG-20010904/DTD/svg10.dtd">

<svg xmlns="http://www.w3.org/2000/svg"
     width="1.20667in" height="0.98in"
     viewBox="0 0 362 294">
  <path id="Selection"
        fill="black" stroke="black" stroke-width="1"
        d="M 35.00,18.00
           C 35.00,18.00 38.58,30.00 38.58,30.00
             38.58,30.00 49.86,67.00 49.86,67.00
             49.86,67.00 58.14,94.00 58.14,94.00
             59.25,97.85 60.97,101.98 60.87,106.00
             60.75,111.04 58.16,116.78 55.53,121.00
             51.37,127.68 46.47,130.60 39.00,132.52
             24.08,136.36 11.92,131.82 4.31,118.00
             2.98,115.58 1.09,111.68 0.54,109.00
             -0.50,103.91 3.08,94.25 4.58,89.00
             4.58,89.00 16.42,48.00 16.42,48.00
             16.42,48.00 24.39,20.09 24.39,20.09
             25.67,15.17 24.43,11.77 26.60,9.60
             28.52,7.68 32.46,8.01 35.00,8.00
             35.00,8.00 119.00,8.00 119.00,8.00
             119.00,8.00 133.00,7.00 133.00,7.00
             133.00,7.00 162.00,7.00 162.00,7.00
             164.41,7.00 167.49,7.23 169.63,5.99
             172.13,4.55 173.79,0.38 180.00,0.15
             186.20,-0.09 188.29,4.33 191.28,5.98
             193.54,7.22 196.49,7.00 199.00,7.00
             199.00,7.00 324.00,7.00 324.00,7.00
             326.76,7.01 330.46,6.71 332.69,8.60
             335.76,11.20 334.28,14.62 334.68,18.00
             334.68,18.00 338.14,30.00 338.14,30.00
             338.14,30.00 354.72,83.00 354.72,83.00
             354.72,83.00 361.39,105.00 361.39,105.00
             361.84,108.43 360.18,112.80 358.93,116.00
             350.14,138.47 317.88,139.91 305.77,121.00
             296.73,107.47 301.91,99.19 305.77,85.00
             305.77,85.00 325.00,18.00 325.00,18.00
             325.00,18.00 191.00,18.00 191.00,18.00
             191.00,18.00 191.00,258.00 191.00,258.00
             198.68,258.00 206.41,256.29 208.00,266.00
             208.00,266.00 256.00,266.00 256.00,266.00
             262.64,266.09 266.46,266.93 268.00,274.00
             271.76,274.04 274.77,273.84 277.87,276.43
             283.02,280.73 282.93,289.22 276.89,292.69
             274.25,294.21 270.95,293.99 268.00,294.00
             268.00,294.00 96.00,294.00 96.00,294.00
             92.15,293.99 88.33,294.33 85.23,291.57
             80.35,287.24 81.13,278.32 87.04,275.17
             89.64,273.79 93.12,274.01 96.00,274.00
             97.49,267.08 100.34,266.09 107.00,266.00
             107.00,266.00 151.00,266.00 151.00,266.00
             153.20,255.74 161.59,258.00 170.00,258.00
             170.00,258.00 170.00,18.00 170.00,18.00
             170.00,18.00 35.00,18.00 35.00,18.00 Z
           M 31.00,25.00
           C 31.00,25.00 29.00,25.00 29.00,25.00
             29.00,25.00 7.00,104.00 7.00,104.00
             7.00,104.00 55.00,104.00 55.00,104.00
             55.00,104.00 38.58,51.00 38.58,51.00
             38.58,51.00 31.00,25.00 31.00,25.00 Z
           M 330.00,25.00
           C 330.00,25.00 321.71,52.00 321.71,52.00
             321.71,52.00 307.00,105.00 307.00,105.00
             307.00,105.00 355.00,105.00 355.00,105.00
             355.00,105.00 330.00,25.00 330.00,25.00 Z" />
</svg>
