<?xml version="1.0" encoding="UTF-8" standalone="no"?>
<!DOCTYPE svg PUBLIC "-//W3C//DTD SVG 20010904//EN"
              "http://www.w3.org/TR/2001/REC-SVG-20010904/DTD/svg10.dtd">

<svg xmlns="http://www.w3.org/2000/svg"
     width="0.646667in" height="0.453333in"
     viewBox="0 0 194 136">
  <path id="Selection #1"
        fill="black" stroke="black" stroke-width="1"
        d="M 192.00,1.00
           C 194.73,8.10 186.61,26.16 183.24,33.00
             168.88,62.21 145.97,84.45 116.00,97.28
             107.91,100.74 98.63,103.66 90.00,105.40
             87.28,105.95 79.29,106.90 77.60,108.60
             75.67,110.54 76.01,114.45 76.00,117.00
             76.00,117.00 76.00,136.00 76.00,136.00
             76.00,136.00 61.00,125.65 61.00,125.65
             61.00,125.65 39.00,108.88 39.00,108.88
             39.00,108.88 14.00,89.88 14.00,89.88
             14.00,89.88 0.00,78.00 0.00,78.00
             0.00,78.00 52.00,38.63 52.00,38.63
             52.00,38.63 76.00,21.00 76.00,21.00
             76.00,21.00 76.00,50.00 76.00,50.00
             76.00,50.00 87.00,50.96 87.00,50.96
             87.00,50.96 104.00,49.71 104.00,49.71
             138.27,45.49 170.14,27.63 192.00,1.00 Z
           M 180.91,21.36
           C 180.91,21.36 169.00,32.18 169.00,32.18
             164.19,35.91 154.15,42.57 148.55,45.55
             138.32,50.74 131.68,53.29 121.55,56.73
             121.55,56.73 108.09,60.82 108.09,60.82
             96.26,63.62 76.04,64.55 63.82,64.55
             63.82,64.55 64.00,48.18 64.00,48.18
             64.00,48.18 37.36,68.09 37.36,68.09
             37.36,68.09 27.04,76.61 27.04,76.61
             27.04,76.61 26.96,78.65 26.96,78.65
             26.96,78.65 44.17,92.74 44.17,92.74
             44.17,92.74 64.12,109.50 64.12,109.50
             64.12,109.50 64.18,94.27 64.18,94.27
             72.26,93.90 88.93,89.74 96.82,87.27
             120.22,79.97 136.36,74.42 153.64,56.64
             153.64,56.64 164.55,45.00 164.55,45.00
             173.43,35.13 176.73,33.00 180.91,21.36 Z" />
</svg>
